<?xml version="1.0" encoding="UTF-8" standalone="no"?>
<!-- Based on /public/brand/forms-logo.svg -->
<svg
  xmlns="http://www.w3.org/2000/svg"
  xmlns:xlink="http://www.w3.org/1999/xlink"
  viewBox="0 0 48 48"
  width="48"
  height="48"
>
  <defs>
    <linearGradient id="canopyGradient" x1="1" y1="0" x2="0" y2="1">
      <stop offset="0.25" stop-color="#005F6A" stop-opacity="1" />
      <stop offset="0.9" stop-color="#5FD48C" stop-opacity="1" />
    </linearGradient>
  </defs>
  <g transform="translate(-35.414212,-22.634474) scale(1.0570748)">
    <path
      fill="url(#canopyGradient)"
      d="m 75.023834,44.846485 c 2.05279,-0.596903 2.367971,4.231366 2.350611,8.16786 -0.01736,3.936494 -0.34003,8.709891 -2.430154,7.854602 -2.090124,-0.855289 -0.627795,-0.745848 -0.632805,-8.07027 -0.005,-7.324422 -1.340441,-7.355288 0.712348,-7.952192 z m 0,-16.173335 c 2.05279,-0.596903 2.367971,4.231366 2.350611,8.16786 -0.01736,3.936494 -0.34003,8.709891 -2.430154,7.854602 -2.090124,-0.855289 -0.627795,-0.745848 -0.632805,-8.07027 -0.005,-7.324422 -1.340441,-7.355288 0.712348,-7.952192 z m 3.886582,30.772037 c 0,1.794925 -1.455075,3.25 -3.25,3.25 -1.794925,0 -3.25,-1.455075 -3.25,-3.25 0,-1.794925 1.455075,-3.25 3.25,-3.25 1.794925,0 3.25,1.455075 3.25,3.25 z m 0,-14.572503 c 0,1.794925 -1.455075,3.25 -3.25,3.25 -1.794925,0 -3.25,-1.455075 -3.25,-3.25 0,-1.794925 1.455075,-3.25 3.25,-3.25 1.794925,0 3.25,1.455075 3.25,3.25 z m 0,-14.572498 c 0,1.794925 -1.455075,3.25 -3.25,3.25 -1.794925,0 -3.25,-1.455075 -3.25,-3.25 0,-1.794925 1.455075,-3.25 3.25,-3.25 1.794925,0 3.25,1.455075 3.25,3.25 z M 40.002087,59.345188 c 0,1.794925 -1.455075,3.25 -3.25,3.25 -1.794925,0 -3.25,-1.455075 -3.25,-3.25 0,-1.794925 1.455075,-3.25 3.25,-3.25 1.794925,0 3.25,1.455075 3.25,3.25 z m 0.1,-14.472504 c 0,1.794925 -1.455075,3.25 -3.25,3.25 -1.794925,0 -3.25,-1.455075 -3.25,-3.25 0,-1.794925 1.455075,-3.25 3.25,-3.25 1.794925,0 3.25,1.455075 3.25,3.25 z m 0,-14.572498 c 0,1.794925 -1.455075,3.25 -3.25,3.25 -1.794925,0 -3.25,-1.455075 -3.25,-3.25 0,-1.794925 1.455075,-3.25 3.25,-3.25 1.794925,0 3.25,1.455075 3.25,3.25 z m -3.775865,0.603461 c -1.46009,-3.044462 6.989085,-4.951278 19.261431,-4.985498 12.272348,-0.0342 21.089817,2.015768 19.261432,4.96745 -1.828385,2.951682 0.08026,-1.98823 -19.261432,-1.97581 -19.341694,0.0124 -17.801341,5.03832 -19.261431,1.993858 z m 0,14.431774 c -1.46009,-3.044462 6.989085,-4.951278 19.261431,-4.985498 12.272348,-0.0342 21.089817,2.015768 19.261432,4.96745 -1.828385,2.951682 0.08026,-1.98823 -19.261432,-1.97581 -19.341694,0.0124 -17.801341,5.03832 -19.261431,1.993858 z m 0,14.431775 c -1.46009,-3.044462 6.989085,-4.951278 19.261431,-4.985498 12.272348,-0.0342 21.089817,2.015768 19.261432,4.96745 -1.828385,2.951682 0.08026,-1.98823 -19.261432,-1.97581 -19.341694,0.0124 -17.801341,5.03832 -19.261431,1.993858 z"
    />
  </g>
</svg>

